<?xml version="1.0" encoding="utf-8"?>
<!-- Svg Vector Icons : http://www.onlinewebfonts.com/icon -->
<!DOCTYPE svg PUBLIC "-//W3C//DTD SVG 1.1//EN" "http://www.w3.org/Graphics/SVG/1.1/DTD/svg11.dtd">
<svg version="1.1" xmlns="http://www.w3.org/2000/svg" xmlns:xlink="http://www.w3.org/1999/xlink" x="0px" y="0px" viewBox="0 0 256 256" enable-background="new 0 0 256 256" xml:space="preserve">
<metadata> Svg Vector Icons : http://www.onlinewebfonts.com/icon </metadata>
<g><g><g><path fill="#000000" d="M161.2,246H94.8c-10.4,0-18.8-8.4-18.8-18.8V47.6c0-10.4,8.4-18.8,18.8-18.8h10c0,0,0,0.5,0-4.7c0-5.2,3.6-14.1,8.8-14.1h28.2c5.2,0,9.4,8.9,9.4,14.1c0,5.2,0,4.7,0,4.7h10c10.4,0,18.8,8.4,18.8,18.8v179.6C179.9,237.6,171.5,246,161.2,246z M141.8,57.6h-9.4v-9.4h-8.8v9.4h-9.4V67h9.4v9.4h8.8V67h9.4V57.6z M170.6,94.5H85.4v132.7c0,5.2,4.2,9.4,9.4,9.4h66.3c5.2,0,9.4-4.2,9.4-9.4V94.5L170.6,94.5z M113.6,207.8h28.8v10h-28.8V207.8L113.6,207.8z"/></g></g></g>
</svg>