<?xml version="1.0" encoding="utf-8"?>
<!-- Svg Vector Icons : http://www.onlinewebfonts.com/icon -->
<!DOCTYPE svg PUBLIC "-//W3C//DTD SVG 1.1//EN" "http://www.w3.org/Graphics/SVG/1.1/DTD/svg11.dtd">
<svg version="1.1" xmlns="http://www.w3.org/2000/svg" xmlns:xlink="http://www.w3.org/1999/xlink" x="0px" y="0px" viewBox="0 0 256 256" enable-background="new 0 0 256 256" xml:space="preserve">
<metadata> Svg Vector Icons : http://www.onlinewebfonts.com/icon </metadata>
<g> <path fill="#000000" d="M109.2,57.7c0-9.1,7.4-16.5,16.5-16.5c9.1,0,16.5,7.4,16.5,16.5v79.8c6.1,4.6,9.6,11.7,9.6,19.3 c0,13.3-10.8,24.1-24.1,24.1c-13.3,0-24.1-10.8-24.1-24.1c0-5.7,2-11.1,5.5-15.3V57.7z M118.6,147.5c-2.5,2.5-3.9,5.8-3.9,9.3 c0,7.2,5.8,13.1,13.1,13.1c7.2,0,13.1-5.9,13.1-13.1c0-4.8-2.6-9.2-6.8-11.5l-2.9-1.6v-86c0-3-2.5-5.5-5.5-5.5 c-3,0-5.5,2.5-5.5,5.5v88.2L118.6,147.5z M131.3,74.2h11c3,0,5.5-2.5,5.5-5.5s-2.5-5.5-5.5-5.5h-11c-3,0-5.5,2.5-5.5,5.5 S128.3,74.2,131.3,74.2z M131.3,96.3h11c3,0,5.5-2.5,5.5-5.5s-2.5-5.5-5.5-5.5h-11c-3,0-5.5,2.5-5.5,5.5S128.3,96.3,131.3,96.3z  M131.3,118.3h11c3,0,5.5-2.5,5.5-5.5s-2.5-5.5-5.5-5.5h-11c-3,0-5.5,2.5-5.5,5.5S128.3,118.3,131.3,118.3z M11.9,141.8 c15,12.8,31.3,12.8,47.2,0.1c11.7-9.3,20.4-9.3,28.5-0.6c2.1,2.2,5.5,2.4,7.8,0.3c2.2-2.1,2.4-5.5,0.3-7.8 c-12.2-13.3-27.5-13.3-43.4-0.6c-11.8,9.4-22.2,9.4-33.1,0.1c-2.3-2-5.8-1.7-7.8,0.6C9.3,136.4,9.6,139.9,11.9,141.8z M47.9,171.4 c15,13.1,31.3,13.1,47.2,0.1c2.4-1.9,2.7-5.4,0.8-7.8c-1.9-2.4-5.4-2.7-7.8-0.8c-11.8,9.6-22.1,9.6-33,0.1c-2.3-2-5.8-1.8-7.8,0.5 S45.6,169.4,47.9,171.4L47.9,171.4z M244.1,133.5c-15-12.8-31.3-12.8-47.2-0.1c-11.7,9.3-20.4,9.3-28.5,0.6 c-2.1-2.2-5.5-2.4-7.8-0.3c-2.2,2.1-2.4,5.5-0.3,7.8c12.2,13.3,27.5,13.3,43.4,0.6c11.8-9.4,22.2-9.4,33.1-0.1 c2.3,2,5.8,1.7,7.8-0.6C246.7,138.9,246.4,135.4,244.1,133.5L244.1,133.5z M196.8,169c-11.7,9.5-20.4,9.5-28.5,0.6 c-2-2.3-5.5-2.4-7.8-0.4c-2.3,2-2.4,5.5-0.4,7.8c12.3,13.6,27.6,13.6,43.6,0.6c2.4-1.9,2.7-5.4,0.8-7.8S199.1,167.1,196.8,169z  M141.6,196.6c-11.7,9.5-20.4,9.5-28.5,0.6c-2-2.3-5.5-2.4-7.8-0.4c-2.3,2-2.4,5.5-0.4,7.8c12.3,13.6,27.6,13.6,43.6,0.6 c2.4-1.9,2.7-5.4,0.8-7.8C147.4,195,144,194.7,141.6,196.6L141.6,196.6z"/></g>
</svg>