<?xml version="1.0" encoding="utf-8"?>
<!-- Svg Vector Icons : http://www.onlinewebfonts.com/icon -->
<!DOCTYPE svg PUBLIC "-//W3C//DTD SVG 1.1//EN" "http://www.w3.org/Graphics/SVG/1.1/DTD/svg11.dtd">
<svg version="1.1" xmlns="http://www.w3.org/2000/svg" xmlns:xlink="http://www.w3.org/1999/xlink" x="0px" y="0px" viewBox="0 0 256 256" enable-background="new 0 0 256 256" xml:space="preserve">
<metadata> Svg Vector Icons : http://www.onlinewebfonts.com/icon </metadata>
<g><g><g><path fill="#000000" d="M119.1,45.5C99.3,47,79.7,53.8,63.1,64.8c-29.6,19.7-49.1,51.9-52.7,87c-0.8,8-0.3,22.5,1,30.1c1.9,11.3,6.3,25.9,8.5,28c1,1,1.5,1,108.3,0.8c100.9-0.2,107.3-0.2,108.2-1c1-1,4.3-10.1,6-16.8c3.1-12.1,4.4-28.7,3.2-41.1c-4.8-46.5-36.7-86.3-80.9-100.8C150.1,46.3,133.7,44.3,119.1,45.5z M144.2,52.6c33.5,4.9,62.5,24.2,79.9,53.3c7.7,12.9,12.7,27.4,14.8,43.1c0.9,7.3,0.9,21.3,0,29.1c-0.9,7-3.4,17.4-5.5,22.8l-1.4,3.7l-3.2,0.1c-1.8,0.1-3.9,0.1-4.8-0.1l-1.5-0.3l1.4-3c2.2-4.9,4.2-11.1,5.7-17.4c1.3-5.6,1.4-6.4,1.4-17.4c0-9-0.2-12.6-0.9-16.5c-2.7-15-7.5-27.8-14.9-39.6c-20.5-33.2-56.6-52.3-93.8-49.6c-28.1,2-53.2,15.1-72,37.6c-22.7,27-30.7,66.3-19.9,97.2c1.1,3.1,2.4,6.4,2.8,7.5l0.8,1.9l-4.6-0.1l-4.6-0.1l-1.4-3.9C8,159.3,18.7,113.3,49.8,83.1C68.4,65,91,54.7,117.6,51.9C123.5,51.3,137.5,51.7,144.2,52.6z M124.5,82v15.5l1.3,1c1.7,1.3,2.5,1.3,3.9-0.2l1.2-1.2V81.8V66.6l3.6,0.3c24.1,2,44.8,11.6,61.7,28.6c2.8,2.8,5,5.4,5,5.7c0,0.3-5,5.6-11.1,11.7c-7.2,7.2-11.1,11.4-11.1,12c0,1.8,1.4,3.2,3.1,3.2c1.4,0,2.8-1.3,12.5-10.9l10.9-10.9l3,4.6c5.9,9.2,11.2,21.6,13.7,32.2c0.9,3.9,2.6,13.9,2.6,15.4c0,0.4-4.4,0.5-15.6,0.5c-17.1,0-17.4,0-17.4,2.9c0,2.9,0.3,2.9,17.5,3l15.7,0.1l-0.1,4.9c-0.2,9.1-2.6,18.9-7.1,29l-2.2,4.9l-15.4,0.2c-8.5,0.2-48.1,0.3-87.9,0.2H39.9l-1.7-3.7c-2.3-5.3-4.4-11.7-5.7-17.4c-1-4.9-2-15.1-1.6-17.3l0.2-1.2H46c13.1,0,14.9-0.1,15.7-0.8c1.1-1,1.1-3,0-4.2c-0.7-0.8-1.9-0.9-15.4-0.9c-8.1,0-14.8-0.2-14.9-0.4c-0.1-0.2,0-2.2,0.2-4.3c1.7-13.8,6.5-28,13.4-39.8c2.9-4.8,9.2-13.5,11.1-15.2l1.1-1l11.4,11.4c8,8,11.8,11.4,12.5,11.4c1.5,0,3-1.7,3-3.3c0-1.1-2.2-3.5-11.4-12.8L61.3,93.6l2-1.7c3.9-3.4,9.9-8,13.3-10.2c11.1-7.1,26.2-12.6,38.6-14.1c2.6-0.3,5.4-0.6,6.1-0.7C124.9,66.5,124.5,64.9,124.5,82z"/><path fill="#000000" d="M125.8,113.9c-1.2,1.2-3.8,8.8-8.9,26.7c-2.8,9.8-3.2,13-1.9,16c2.8,6.3,9,9.5,14.8,7.6c4.7-1.5,8.3-5.9,8.8-10.4c0.3-2.8-1.7-13.5-5.7-29.5c-1.9-7.7-2.7-10-3.5-10.7C128,112.5,127.3,112.6,125.8,113.9z M128.9,134.5c3.9,16.6,4.2,20.1,1.8,22.5c-1.1,1.1-1.7,1.3-4.3,1.3c-2.8,0-3.1-0.1-4.4-1.6c-2.3-2.6-2.1-4.2,2.6-20.2c1.4-4.7,2.6-8.4,2.7-8.3C127.4,128.3,128.1,131.1,128.9,134.5z"/><path fill="#000000" d="M89.3,173.4c-0.8,0.9-0.9,1.9-0.9,11.6c0,10.5,0,10.6,1.2,11.5c1.1,0.9,2.5,0.9,38.2,0.9c35.7,0,37.1,0,38.2-0.9c1.2-0.9,1.2-1,1.2-11.5c0-9.7-0.1-10.7-0.9-11.6c-1.1-1.3-3.3-1.3-4.4-0.1c-0.7,0.8-0.8,2.2-0.8,9.3v8.5h-8.8h-8.8l-0.1-8.3c-0.1-7.3-0.2-8.4-1.1-9.3c-0.5-0.6-1.5-1-2.2-1c-3,0-3.5,1.4-3.5,10.8v7.9h-8.6h-8.6l-0.1-8.3c-0.1-7.3-0.2-8.4-1.1-9.3c-1.2-1.3-3.4-1.3-4.7,0c-0.9,0.9-1,1.6-1,9.3v8.4h-8.9h-8.9v-8.5c0-7.7-0.1-8.7-0.9-9.3C92.4,172,90.4,172.1,89.3,173.4z"/></g></g></g>
</svg>