<?xml version="1.0" encoding="utf-8"?>
<!-- Svg Vector Icons : http://www.onlinewebfonts.com/icon -->
<!DOCTYPE svg PUBLIC "-//W3C//DTD SVG 1.1//EN" "http://www.w3.org/Graphics/SVG/1.1/DTD/svg11.dtd">
<svg version="1.1" xmlns="http://www.w3.org/2000/svg" xmlns:xlink="http://www.w3.org/1999/xlink" x="0px" y="0px" viewBox="0 0 256 256" enable-background="new 0 0 256 256" xml:space="preserve">
<metadata> Svg Vector Icons : http://www.onlinewebfonts.com/icon </metadata>
<g><g><path fill="#000000" d="M185.6,33.8C170.2,18.5,149.7,10,128,10c-21.7,0-42.2,8.5-57.6,23.8C55,49.2,46.6,69.7,46.6,91.4c0,11.1,2.2,21.9,6.6,32.1c4.2,11.4,19.2,45,69,114.4l5.8,8.1l5.8-8.1c49.8-69.4,64.9-103,69-114.4c4.4-10.2,6.6-21,6.6-32.1C209.4,69.7,201,49.2,185.6,33.8z M128,110.8c-14.3,0-25.8-11.6-25.8-25.8c0-14.3,11.6-25.8,25.8-25.8c14.3,0,25.8,11.6,25.8,25.8C153.8,99.2,142.3,110.8,128,110.8z"/></g></g>
</svg>