<svg xmlns="http://www.w3.org/2000/svg" viewBox="0 0 64 64"><path d="M27 12a5 5 0 0 1 5 5v34a5 5 0 0 1-5 5H13a5 5 0 0 1-5-5V17a5 5 0 0 1 5-5h14Zm0 4H13a1 1 0 0 0-1 1v34a1 1 0 0 0 1 1h14a1 1 0 0 0 1-1V17a1 1 0 0 0-1-1Zm-3.258 7.979a.5.5 0 0 1 .152.543L21.357 32h3.748a1 1 0 0 1 .766 1.643L17.212 43.96a.5.5 0 0 1-.856-.482L18.893 36h-3.748a1 1 0 0 1-.766-1.643l8.659-10.317a.5.5 0 0 1 .704-.061ZM21 6a4 4 0 0 1 3.995 3.8L25 10H15a4 4 0 0 1 4-4h2Zm30 0a2 2 0 0 1 2 2v9.025c.73.05 1.097.179 1.465.376.49.261.873.645 1.134 1.134.262.489.401.974.401 2.31v5.82c0 2.246-.278 3.288-.801 4.266a5.452 5.452 0 0 1-2.268 2.268c-.76.406-1.558.664-2.928.76L50 34a2 2 0 0 0-2 2v2h-.001L48 48a8 8 0 0 1-7.75 7.996L40 56h-2a2 2 0 1 1 0-4h2a4 4 0 0 0 4-4l-.001-12.025-.004-.124a2 2 0 0 0-1.846-1.846L42 34l-.002-.041c-1.37-.095-2.169-.354-2.929-.76a5.452 5.452 0 0 1-2.268-2.268c-.523-.978-.801-2.02-.801-4.265v-5.82c0-1.337.14-1.822.4-2.311a2.726 2.726 0 0 1 1.135-1.134c.368-.197.734-.325 1.464-.376L39 8a2 2 0 1 1 4 0v9h6V8a2 2 0 0 1 2-2Z" fill-rule="evenodd"/></svg>