<?xml version="1.0" encoding="utf-8"?>
<!-- Svg Vector Icons : http://www.onlinewebfonts.com/icon -->
<!DOCTYPE svg PUBLIC "-//W3C//DTD SVG 1.1//EN" "http://www.w3.org/Graphics/SVG/1.1/DTD/svg11.dtd">
<svg version="1.1" xmlns="http://www.w3.org/2000/svg" xmlns:xlink="http://www.w3.org/1999/xlink" x="0px" y="0px" viewBox="0 0 256 256" enable-background="new 0 0 256 256" xml:space="preserve">
<metadata> Svg Vector Icons : http://www.onlinewebfonts.com/icon </metadata>
<g><g><g><path fill="#000000" d="M43.4,8.6C22.7,14,8.5,35.7,10.1,59.5c0.5,6.9,2.2,13.7,5,19.2c2,3.9,37.8,58.8,38.5,58.8c0.2,0,2.3-3.1,4.8-7c2.8-4.4,4.6-6.7,4.9-6.2c0.3,0.4,0.6,2.3,0.9,4.2c0.4,3.5,0.4,3.5,2.4,3.1c1.1-0.2,3.3-0.6,4.8-0.8l2.8-0.5l-0.4-4.7c-0.2-2.6-0.5-4.9-0.6-5.1c-0.2-0.2-2.1,0-4.4,0.3c-2.2,0.4-4.1,0.6-4.2,0.5c-0.1-0.1,5.5-8.7,12.4-19.1c17.7-26.5,19.7-31.4,19.7-46.5c0-6.7-0.3-9.3-1.4-13.5c-5-17.4-16.8-29.9-32-33.7C57.2,7,49.7,7,43.4,8.6z M66.6,20.6C84.3,29.4,92,53.6,83.4,73.3C82,76.5,54.2,119,53.6,119c-0.8-0.1-28.3-42.4-29.9-45.9C14.4,51.9,24.3,26,44.3,18.8c3.1-1.1,5-1.3,10.3-1.2C60.8,17.9,61.4,18.1,66.6,20.6z"/><path fill="#000000" d="M46.7,28.7c-9.4,3.1-16.4,11.6-18.2,22.3c-1.7,9.6,1.8,19.8,9,26.4c4.9,4.6,9.5,6.4,16,6.4s11.1-1.8,16-6.4C81.7,66.3,82.1,46.6,70.5,35c-4.7-4.7-9.3-6.7-15.9-7C51.4,27.9,48.4,28.2,46.7,28.7z M60,39.8c14.7,8,9.8,33.8-6.4,33.9c-14.1,0.1-20.7-20.7-10-31.3c3.1-3.1,5.6-4.2,9.9-4.2C56,38.1,57.8,38.5,60,39.8z"/><path fill="#000000" d="M194.2,119.4c-10.1,2.1-20.7,9.7-27,19.3c-9.4,14.3-10.8,34.2-3.6,50.4c0.8,1.9,7.8,12.9,15.5,24.5l13.9,21.1l-3.8-0.5c-4.4-0.5-4.1-0.8-4.9,6.1l-0.5,3.6l4,0.4c6.5,0.7,6.2,0.9,6.7-3.1l0.5-3.6l3.6,5.5c2,3,3.7,5.5,3.9,5.5c0.6,0,35.7-53.5,38.1-58.1c7.8-15.3,7.1-35.1-1.6-50.1c-3.7-6.3-11.8-14.2-17.7-17.2C212.5,118.7,203.3,117.4,194.2,119.4z M209.9,129.6c5.6,1.5,9.8,4,14.5,8.7c11.6,11.5,14.9,31.3,7.8,46.4c-1.9,4-28.6,44.9-29.6,45.2c-0.7,0.3-27.5-40.4-29.7-45.2c-7.1-15.1-3.8-35.1,7.8-46.5C189.1,129.9,199.3,126.9,209.9,129.6z"/><path fill="#000000" d="M196.4,139.7c-10.1,3.4-17,11.4-18.9,22.3c-1.3,7.4,0.5,15.9,4.9,22.3c2.8,4,5.9,6.6,10.9,8.9c3.1,1.5,4.6,1.8,9.2,1.8c4.8,0,6-0.3,9.7-2c15.5-7.3,20.5-28.4,10.4-43.1c-2.8-4.1-5.9-6.7-10.8-8.9C207.3,139,200.4,138.4,196.4,139.7z M208,150.4c6,2.8,9.6,9.1,9.6,16.8c0,15.5-15.3,23.7-25.1,13.4c-3.4-3.6-5-7.9-5-13.4c0-10.1,6.6-18,15.1-18C204.1,149.1,206.6,149.7,208,150.4z"/><path fill="#000000" d="M84.4,124.8c0,2.4-0.1,4.7-0.1,4.9c-0.2,0.5,2.8,1.1,7.4,1.7c1,0.1,1.5-0.6,2.4-3.7c1.7-5.7,1.7-5.8-2.5-6.7c-2-0.4-4.4-0.7-5.5-0.7h-1.8V124.8z"/><path fill="#000000" d="M103.8,131.2c-1.5,2.1-2.7,4-2.7,4.2c0,0.3,1.3,1.7,2.9,3.3l2.9,2.9l3.1-2.3c4.9-3.7,5-3.8,2.2-6.8c-1.3-1.4-3.1-3.1-4.1-3.9l-1.7-1.2L103.8,131.2z"/><path fill="#000000" d="M116,147.5l-4.6,2.2l1.7,4.2c0.9,2.3,2,4.2,2.4,4.2c1.8,0,8.7-2.8,8.7-3.5c0-0.7-3.1-8.7-3.5-9.2C120.7,145.4,118.5,146.3,116,147.5z"/><path fill="#000000" d="M122,167.1c-2.1,0.6-3.9,1.3-3.8,1.7c0.1,0.3,0.6,2.6,1.2,4.9c0.9,3.4,1.3,4.3,2.2,4c7-1.9,8.4-2.4,8.4-3c0-0.4-0.5-2.6-1.1-4.8C127.7,165.3,127.7,165.4,122,167.1z"/><path fill="#000000" d="M128.7,186.5c-2.3,0.7-4.4,1.5-4.7,1.7c-0.5,0.4,1.9,8.2,2.7,9.2c0.3,0.3,2.5-0.3,5-1.2l4.6-1.7l-1.5-4.6c-0.8-2.5-1.6-4.6-1.7-4.6C132.9,185.4,131,185.9,128.7,186.5z"/><path fill="#000000" d="M135.4,205.8c-2.1,1.1-4,2.1-4.1,2.2c-0.3,0.3,4.3,8.5,5.1,8.9c0.6,0.4,8.3-4.6,8.3-5.3c0-0.6-4.7-7.9-5.1-7.9C139.5,203.8,137.5,204.7,135.4,205.8z"/><path fill="#000000" d="M147.4,222.5l-3.3,3.4l2.4,2.2c2.5,2.4,5.3,4.4,6,4.4c0.8,0,5.8-7.8,5.3-8.3c-2.5-2-6.6-5.2-6.8-5.2C150.9,219.1,149.3,220.7,147.4,222.5z"/><path fill="#000000" d="M164.6,233.7c-1.1,2.4-1.7,4.5-1.5,4.7c0.5,0.5,8.5,3.2,9.3,3.2c0.4,0,0.9-1.4,2.8-8.4c0.3-0.8-0.6-1.4-3.7-2.4c-2.2-0.8-4.2-1.3-4.5-1.3C166.8,229.4,165.7,231.3,164.6,233.7z"/></g></g></g>
</svg>