<svg viewBox="0 0 48 48" xmlns="http://www.w3.org/2000/svg"><path d="M8.652 12.004 31.57 12c2.808 0 4.05.256 5.103.74l.444.222a6.542 6.542 0 0 1 2.721 2.721l.222.444c.484 1.053.74 2.295.74 5.103v5.54c0 2.808-.256 4.05-.74 5.103l-.222.444a6.542 6.542 0 0 1-2.721 2.721l-.444.222c-1.053.484-2.295.74-5.103.74H9.23c-2.808 0-4.05-.256-5.103-.74l-.444-.222a6.542 6.542 0 0 1-2.721-2.721l-.222-.444c-.45-.977-.702-2.118-.736-4.525L0 21.23c0-2.808.256-4.05.74-5.103l.222-.444a6.542 6.542 0 0 1 2.721-2.721l.444-.222c.977-.45 2.118-.702 4.525-.736Zm23.443 2.399L9.23 14.4l-1.003.011c-1.822.046-2.608.237-3.412.667a4.143 4.143 0 0 0-1.737 1.737c-.43.804-.621 1.59-.667 3.412L2.4 21.23v5.54c0 2.564.176 3.477.678 4.415a4.143 4.143 0 0 0 1.737 1.737c.804.43 1.59.621 3.412.667l1.003.011h22.34l1.003-.011c1.822-.046 2.608-.237 3.412-.667a4.143 4.143 0 0 0 1.737-1.737c.43-.804.621-1.59.667-3.412l.011-1.003v-5.54l-.011-1.003c-.046-1.822-.237-2.608-.667-3.412a4.143 4.143 0 0 0-1.737-1.737c-.871-.466-1.72-.651-3.89-.675ZM19.2 16.8l-4.8 9.6h4.8v4.8H7.877c-1.07 0-1.458-.111-1.85-.32a2.18 2.18 0 0 1-.906-.908c-.21-.39-.321-.779-.321-1.849v-8.246c0-1.07.111-1.458.32-1.85a2.18 2.18 0 0 1 .908-.906c.39-.21.779-.321 1.849-.321H19.2Zm13.723 0c1.07 0 1.458.111 1.85.32.39.21.697.517.906.908.21.39.321.779.321 1.849v8.246c0 1.07-.111 1.458-.32 1.85a2.18 2.18 0 0 1-.908.906c-.39.21-.779.321-1.849.321H21.6l4.8-9.6h-4.8v-4.8h11.323ZM43.2 19.2a4.8 4.8 0 0 1 .358 9.587l-.358.013v-9.6Z" fill="#313132" fill-rule="evenodd"/></svg>