<svg xmlns="http://www.w3.org/2000/svg" viewBox="0 0 64 64"><path d="M46 8a6 6 0 0 1 6 6v11a2 2 0 1 1 0 4v11a6 6 0 0 1-6 6 2.005 2.005 0 0 1-.89 1.594l-1.665 1.11a1 1 0 0 0-.445.831V54a2 2 0 1 1-4 0v-4.465a1 1 0 0 0-.445-.832l-1.664-1.11a1.999 1.999 0 0 1-.392-.341 1.952 1.952 0 0 1-.39.342l-1.664 1.11a1 1 0 0 0-.445.831V54a2 2 0 1 1-4 0v-4.465a1 1 0 0 0-.445-.832l-1.664-1.11a1.999 1.999 0 0 1-.392-.341 1.952 1.952 0 0 1-.39.342l-1.664 1.11a1 1 0 0 0-.445.831V54a2 2 0 1 1-4 0v-4.465a1 1 0 0 0-.445-.832l-1.664-1.11a2 2 0 0 1-.884-1.497L18.003 46A6 6 0 0 1 12 40V29a2 2 0 0 1-.15-3.995L12 25V14a6 6 0 0 1 6-6h28Zm0 4H18a2 2 0 0 0-2 2v26a2 2 0 0 0 2 2h28a2 2 0 0 0 2-2V14a2 2 0 0 0-2-2Zm-10.74 6.048a.741.741 0 0 1 .44.962l-2.294 6.115h3.837c.146 0 .287.041.408.118l.087.064c.316.27.351.74.078 1.051l-8.237 9.384a.764.764 0 0 1-.84.21.742.742 0 0 1-.44-.962l2.294-6.115h-3.836a.765.765 0 0 1-.408-.118l-.087-.064a.738.738 0 0 1-.078-1.051l8.237-9.384a.764.764 0 0 1 .84-.21Z"/></svg>