<svg viewBox="0 0 48 48" xmlns="http://www.w3.org/2000/svg"><path d="M24 2.4a23.916 23.916 0 0 1 16.383 6.462l.616.596A23.926 23.926 0 0 1 48 26.4a23.916 23.916 0 0 1-6.45 16.37l-.748.768-.002-.019-.056.051a2.4 2.4 0 0 1-3.168-.2l-1.697-1.696a2.4 2.4 0 0 1 3.395-3.395l1.603 1.603a21.497 21.497 0 0 0 4.591-11.08L43.2 28.8a2.4 2.4 0 1 1 0-4.8h2.268a21.497 21.497 0 0 0-4.59-11.081l-1.604 1.602a2.4 2.4 0 0 1-3.395-3.395l1.602-1.604a21.497 21.497 0 0 0-11.08-4.59L26.4 7.2a2.4 2.4 0 1 1-4.8 0V4.932a21.497 21.497 0 0 0-11.081 4.59l1.602 1.604a2.4 2.4 0 0 1-3.395 3.395l-1.604-1.602A21.497 21.497 0 0 0 2.532 24H4.8a2.4 2.4 0 1 1 0 4.8l-2.268.002a21.497 21.497 0 0 0 4.59 11.08l1.604-1.603a2.4 2.4 0 1 1 3.395 3.395l-1.697 1.697a2.4 2.4 0 0 1-3.225.154l.002.015-.525-.53A23.92 23.92 0 0 1 0 26.4c0-6.337 2.456-12.1 6.469-16.39l.596-.617A23.924 23.924 0 0 1 24 2.4Zm-8.485 13.818 6.815 5.68a4.8 4.8 0 1 1-2.831 2.831l-5.681-6.814a1.205 1.205 0 0 1 1.697-1.697Z" fill="#313132" fill-rule="evenodd"/></svg>