<?xml version="1.0" standalone="no"?>
<!DOCTYPE svg PUBLIC "-//W3C//DTD SVG 20010904//EN"
 "http://www.w3.org/TR/2001/REC-SVG-20010904/DTD/svg10.dtd">
<svg version="1.0" xmlns="http://www.w3.org/2000/svg"
 width="500.000000pt" height="500.000000pt" viewBox="0 0 500.000000 500.000000"
 preserveAspectRatio="xMidYMid meet">
<metadata>
Created by potrace 1.16, written by Peter Selinger 2001-2019
</metadata>
<g transform="translate(0.000000,500.000000) scale(0.100000,-0.100000)"
fill="#000000" stroke="none">
<path d="M270 2727 c0 -119 10 -137 73 -137 l37 0 0 120 0 120 -55 0 -55 0 0
-103z"/>
<path d="M897 2652 c-13 -14 -17 -38 -17 -94 0 -109 -1 -108 199 -108 93 0
171 -4 182 -10 22 -12 27 -78 7 -98 -8 -8 -67 -12 -201 -12 l-188 0 3 -27 3
-28 229 -3 c286 -3 276 -7 276 113 0 119 7 115 -205 115 -162 0 -175 1 -185
19 -15 29 -12 67 6 85 13 13 46 16 200 16 l184 0 0 25 0 25 -238 0 c-219 0
-240 -2 -255 -18z"/>
<path d="M1440 2645 c0 -25 0 -25 95 -25 l95 0 2 -172 3 -173 55 0 55 0 3 173
2 172 95 0 c95 0 95 0 95 25 l0 25 -250 0 -250 0 0 -25z"/>
<path d="M1990 2470 l0 -200 55 0 54 0 3 86 3 86 125 -1 c152 -2 160 -7 160
-107 l0 -64 55 0 55 0 0 74 c0 62 -4 79 -25 110 l-25 38 25 30 c18 21 25 41
25 72 0 75 -2 76 -273 76 l-237 0 0 -200z m384 134 c18 -18 21 -56 6 -85 -10
-17 -22 -19 -145 -19 l-135 0 0 53 c0 30 3 57 7 60 3 4 62 7 129 7 98 0 126
-3 138 -16z"/>
<path d="M2587 2652 c-14 -16 -17 -44 -17 -178 0 -123 3 -165 14 -180 13 -18
30 -19 231 -22 184 -3 220 -1 241 13 24 15 24 17 24 185 0 140 -3 171 -16 184
-13 14 -49 16 -238 16 -203 0 -224 -2 -239 -18z m371 -44 c18 -18 16 -252 -2
-267 -9 -8 -55 -11 -137 -9 l-124 3 -3 134 c-2 101 1 136 10 143 21 13 242 10
256 -4z"/>
<path d="M3152 2473 l3 -198 55 0 55 0 3 173 2 172 73 0 c43 0 78 -5 85 -12 8
-8 12 -62 12 -175 l0 -163 55 0 55 0 2 173 3 172 68 3 c42 2 74 -2 83 -9 11
-9 14 -46 14 -175 l0 -164 55 0 55 0 0 188 c0 133 -4 192 -12 200 -9 9 -98 12
-340 12 l-328 0 2 -197z"/>
<path d="M3922 2658 c-8 -8 -12 -64 -12 -185 0 -170 0 -173 24 -188 19 -13 59
-15 252 -13 l229 3 3 27 3 28 -198 2 -198 3 0 53 0 53 195 2 195 2 3 28 3 27
-200 0 -201 0 0 48 c0 26 5 53 12 60 8 8 67 12 200 12 l188 0 0 25 0 25 -243
0 c-176 0 -246 -3 -255 -12z"/>
<path d="M4490 2470 l0 -200 55 0 54 0 3 86 3 86 125 -1 c152 -2 160 -7 160
-107 l0 -64 55 0 55 0 0 74 c0 62 -4 79 -25 110 l-25 38 25 30 c18 21 25 41
25 72 0 75 -2 76 -273 76 l-237 0 0 -200z m384 134 c18 -18 21 -56 6 -85 -10
-17 -22 -19 -145 -19 l-135 0 0 53 c0 30 3 57 7 60 3 4 62 7 129 7 98 0 126
-3 138 -16z"/>
<path d="M0 2505 l0 -55 121 0 121 0 -20 33 c-31 47 -93 77 -164 77 l-58 0 0
-55z"/>
<path d="M420 2549 c0 -22 40 -67 74 -83 20 -9 59 -16 95 -16 l61 0 0 55 0 55
-115 0 c-77 0 -115 -4 -115 -11z"/>
<path d="M270 2300 l0 -120 55 0 55 0 0 104 c0 97 -2 106 -22 120 -12 9 -37
16 -55 16 l-33 0 0 -120z"/>
</g>
</svg>
